<svg width="900" height="600" viewBox="0 0 900 600" fill="none" xmlns="http://www.w3.org/2000/svg">
  <rect width="900" height="600" rx="36" fill="#DADDD6"/>
  <path d="M0 395C120 330 240 330 360 395C480 460 600 460 720 395C840 330 900 330 900 330V600H0V395Z" fill="#C9CCC4"/>
  <path d="M85 190C170 120 260 120 345 190C430 260 520 260 605 190C690 120 780 120 865 190" stroke="#B08A2C" stroke-opacity="0.45" stroke-width="10" stroke-linecap="round"/>
  <path d="M165 255C220 220 280 220 335 255C390 290 450 290 505 255C560 220 620 220 675 255C730 290 790 290 835 255" stroke="#FFFFFF" stroke-opacity="0.55" stroke-width="8" stroke-linecap="round"/>
  <circle cx="160" cy="140" r="38" fill="#F6F7F4"/>
  <circle cx="160" cy="140" r="22" fill="#B08A2C" fill-opacity="0.25"/>
  <path d="M515 120C515 93.4903 536.49 72 563 72H738C764.51 72 786 93.4903 786 120V224C786 250.51 764.51 272 738 272H563C536.49 272 515 250.51 515 224V120Z" fill="#EEF0EB" stroke="#E5E7EB"/>
  <text x="650" y="154" text-anchor="middle" font-family="ui-sans-serif, system-ui, -apple-system, Segoe UI, Arial" font-size="12" letter-spacing="5" fill="#6B7280">LIFESTYLE</text>
  <text x="650" y="180" text-anchor="middle" font-family="ui-sans-serif, system-ui, -apple-system, Segoe UI, Arial" font-size="10" letter-spacing="4" fill="#B08A2C">PLACEHOLDER</text>
  <path d="M548 214H752" stroke="#D4B36A" stroke-width="6" stroke-linecap="round"/>
</svg>
