<svg width="240" height="240" viewBox="0 0 240 240" fill="none" xmlns="http://www.w3.org/2000/svg">
  <rect width="240" height="240" rx="48" fill="#F3F4F2"/>
  <path d="M120 34C165.2 34 202 70.8 202 116C202 161.2 165.2 198 120 198C74.8 198 38 161.2 38 116C38 70.8 74.8 34 120 34Z" stroke="#1F2937" stroke-opacity="0.25" stroke-width="6"/>
  <path d="M120 58C148.7 58 172 81.3 172 110C172 138.7 148.7 162 120 162C91.3 162 68 138.7 68 110C68 81.3 91.3 58 120 58Z" fill="#FFFFFF"/>
  <path d="M110 82C110 76.4772 114.477 72 120 72C125.523 72 130 76.4772 130 82V92C130 97.5228 125.523 102 120 102C114.477 102 110 97.5228 110 92V82Z" fill="#B08A2C" fill-opacity="0.35"/>
  <path d="M92 140C97.8 122 108.6 112 120 112C131.4 112 142.2 122 148 140" stroke="#1F2937" stroke-opacity="0.45" stroke-width="6" stroke-linecap="round"/>
  <path d="M82 184H158" stroke="#B08A2C" stroke-opacity="0.7" stroke-width="6" stroke-linecap="round"/>
  <text x="120" y="222" text-anchor="middle" font-family="ui-sans-serif, system-ui, -apple-system, Segoe UI, Arial" font-size="12" letter-spacing="6" fill="#1F2937">POLIMNIA</text>
</svg>
