<svg width="900" height="600" viewBox="0 0 900 600" fill="none" xmlns="http://www.w3.org/2000/svg">
  <rect width="900" height="600" rx="36" fill="#E6E7E4"/>
  <path d="M207 484C207 516.033 233.967 542 266 542H634C666.033 542 693 516.033 693 484V220C693 187.967 666.033 161 634 161H266C233.967 161 207 187.967 207 220V484Z" fill="#D1D3CE"/>
  <path d="M262 220C262 205.088 274.088 193 289 193H611C625.912 193 638 205.088 638 220V484C638 498.912 625.912 511 611 511H289C274.088 511 262 498.912 262 484V220Z" fill="#F6F7F4"/>
  <path d="M344 155C344 134.565 360.565 118 381 118H519C539.435 118 556 134.565 556 155V193H344V155Z" fill="#C8CBC4"/>
  <path d="M382 92C382 79.8497 391.85 70 404 70H496C508.15 70 518 79.8497 518 92V118H382V92Z" fill="#B9BCB4"/>
  <path d="M340 276C340 261.641 351.641 250 366 250H534C548.359 250 560 261.641 560 276V400C560 414.359 548.359 426 534 426H366C351.641 426 340 414.359 340 400V276Z" fill="#ECEEE9"/>
  <path d="M365 281H535V395H365V281Z" fill="#F7F8F5"/>
  <path d="M375 304H525" stroke="#B08A2C" stroke-width="4" stroke-linecap="round"/>
  <path d="M375 332H525" stroke="#D4B36A" stroke-width="4" stroke-linecap="round"/>
  <path d="M375 360H490" stroke="#D4B36A" stroke-width="4" stroke-linecap="round"/>
  <text x="450" y="315" text-anchor="middle" font-family="ui-sans-serif, system-ui, -apple-system, Segoe UI, Arial" font-size="18" letter-spacing="6" fill="#1F2937">POLIMNIA</text>
  <text x="450" y="347" text-anchor="middle" font-family="ui-sans-serif, system-ui, -apple-system, Segoe UI, Arial" font-size="10" letter-spacing="5" fill="#B08A2C">INSPIRING SIMPLICITY</text>
  <circle cx="450" cy="485" r="7" fill="#B08A2C"/>
  <path d="M115 470C170 420 230 420 280 470C330 520 390 520 450 470C510 420 570 420 620 470C670 520 730 520 785 470" stroke="#B08A2C" stroke-opacity="0.35" stroke-width="6" stroke-linecap="round"/>
</svg>
